PathFileType	4	(X/Y/Z)	E:\Qualisys_Data\Carbon_Farble_Plate\Data\Amateur_Runner\S2\T2\S2T2V13_c3d.trc
DataRate	CameraRate	NumFrames	NumMarkers	Units	OrigDataRate	OrigDataStartFrame	OrigNumFrames
200.000000	200.000000	5	39	mm	200.000000	243	325
Frame#	Time	LSHO			RSHO			LICST			RICST			LASIS			LHEEL			RASIS			LTROC			RTROC			SACR			LTH1			LSK4			LTH2			LTH3			RHM5			LSK2			LTH4			RTH1			LTOE			RTH2			RTH3			RTH4			LLEP			RLEP			LSK1			LSK3			RSK1			LHM5			RSK2			LFT1			RSK3			RSK4			LLME			RLME			RTOE			RHEEL			RFT1			RFT2			LFT2			
		X1	Y1	Z1	X2	Y2	Z2	X3	Y3	Z3	X4	Y4	Z4	X5	Y5	Z5	X6	Y6	Z6	X7	Y7	Z7	X8	Y8	Z8	X9	Y9	Z9	X10	Y10	Z10	X11	Y11	Z11	X12	Y12	Z12	X13	Y13	Z13	X14	Y14	Z14	X15	Y15	Z15	X16	Y16	Z16	X17	Y17	Z17	X18	Y18	Z18	X19	Y19	Z19	X20	Y20	Z20	X21	Y21	Z21	X22	Y22	Z22	X23	Y23	Z23	X24	Y24	Z24	X25	Y25	Z25	X26	Y26	Z26	X27	Y27	Z27	X28	Y28	Z28	X29	Y29	Z29	X30	Y30	Z30	X31	Y31	Z31	X32	Y32	Z32	X33	Y33	Z33	X34	Y34	Z34	X35	Y35	Z35	X36	Y36	Z36	X37	Y37	Z37	X38	Y38	Z38	X39	Y39	Z39	

244	1.215	1461.372802734375	1478.733276367188	-420.3933410644531	1538.519409179688	1454.316650390625	-130.4096984863281	1474.069946289062	1009.302612304688	-415.1148986816406	1511.509399414062	995.7816772460938	-118.1271667480469	1536.100830078125	963.3091430664062	-401.5812377929688	1578.296020507812	78.19816589355469	-282.9046020507812	1567.281982421875	948.2431640625	-145.2424163818359	1418.192016601562	878.4971313476562	-419.4987182617188	1415.37255859375	901.8058471679688	-102.2225952148438	1397.801513671875	1041.16162109375	-253.8213195800781	1602.745849609375	675.4202270507812	-427.34228515625	1569.88037109375	278.2455139160156	-385.654296875	1523.986572265625	649.6168823242188	-421.46923828125	1635.4521484375	581.4356079101562	-395.3687133789062	935.5128784179688	294.298583984375	-122.5315856933594	1566.675659179688	375.7373657226562	-401.2481079101562	1554.067993164062	557.5510864257812	-392.7320556640625	1485.23095703125	634.4788208007812	-102.4750442504883	1814.467895507812	143.9253997802734	-329.1783752441406	1410.866943359375	653.3558349609375	-99.11614227294922	1461.73779296875	536.5292358398438	-109.8550720214844	1384.14111328125	558.739990234375	-115.9138717651367	1605.9736328125	513.6248168945312	-389.1331787109375	1394.165893554688	512.7852172851562	-107.3988494873047	1644.596069335938	380.1092529296875	-392.0423583984375	1649.526977539062	281.8425903320312	-379.0542907714844	1302.632080078125	438.5572509765625	-102.9591293334961	1764.270141601562	98.42823791503906	-378.3096923828125	1280.267333984375	515.7515258789062	-105.8519668579102	1599.302001953125	56.02911376953125	-260.4111328125	1205.030517578125	409.4128723144531	-111.2660980224609	1185.65185546875	486.2247619628906	-118.1711120605469	1631.59716796875	98.99571228027344	-349.2229309082031	1015.390502929688	397.9578552246094	-147.253662109375	951.93994140625	212.6527709960938	-164.5976867675781	1027.676635742188	446.4447631835938	-211.4374084472656	1004.432556152344	430.6766662597656	-246.8516387939453	993.3837890625	456.3299560546875	-196.8692779541016	1591.140380859375	45.21097183227539	-312.6959533691406
245	1.22	1477.562622070312	1472.6806640625	-421.505859375	1554.1357421875	1449.222900390625	-130.8755798339844	1488.959716796875	1004.675109863281	-415.1784362792969	1527.235107421875	990.5363159179688	-117.9399490356445	1551.210327148438	958.9408569335938	-402.0296630859375	1587.734130859375	78.64110565185547	-282.5807189941406	1582.993774414062	943.2117309570312	-145.3188171386719	1433.717651367188	873.96728515625	-418.9935302734375	1432.388793945312	895.0885009765625	-101.3752288818359	1413.031616210938	1036.278564453125	-253.8024749755859	1619.8212890625	673.0115356445312	-423.7105102539062	1582.20458984375	273.744384765625	-383.9683532714844	1541.43359375	647.0529174804688	-419.4109802246094	1651.970703125	578.4349365234375	-393.4009094238281	954.3980102539062	299.4188232421875	-122.360237121582	1580.276000976562	371.3224487304688	-400.2101440429688	1570.584716796875	554.3772583007812	-392.3550109863281	1505.810913085938	629.18408203125	-102.4082870483398	1824.058227539062	133.5017242431641	-325.3087768554688	1430.536865234375	646.491943359375	-99.59271240234376	1483.281982421875	530.5223999023438	-108.726921081543	1405.543334960938	551.60546875	-115.5013275146484	1621.81591796875	509.4560852050781	-387.9109802246094	1416.516479492188	505.9582824707031	-106.4359359741211	1658.034912109375	375.0587158203125	-390.6128540039062	1661.711303710938	276.0662536621094	-377.4062194824219	1324.009521484375	434.1212768554688	-102.4760513305664	1772.780029296875	89.56269073486328	-374.8904418945312	1303.301391601562	512.86376953125	-104.5307846069336	1604.773803710938	55.99629211425781	-258.4383850097656	1226.123046875	407.3426513671875	-111.1594848632812	1208.669921875	484.6239318847656	-118.0024490356445	1641.1923828125	94.38140106201172	-347.4059143066406	1036.190307617188	401.0767211914062	-147.5106048583984	969.73193359375	217.0379791259766	-164.1239013671875	1050.075317382812	448.6289978027344	-211.8760528564453	1027.000610351562	433.3347778320312	-247.5985107421875	1016.153015136719	460.0746459960938	-197.6834716796875	1597.077758789062	43.54879760742188	-311.3572082519531
246	1.225	1494.504638671875	1466.848510742188	-422.9653015136719	1569.672973632812	1444.06591796875	-131.6077575683594	1503.760375976562	999.90625	-415.2461242675781	1543.063354492188	984.9072265625	-117.9226837158203	1566.38232421875	954.37158203125	-402.5278015136719	1595.719116210938	78.07563018798828	-279.0166320800781	1598.7099609375	937.937744140625	-145.946533203125	1449.048217773438	869.1121826171875	-418.2533874511719	1448.452392578125	888.676513671875	-100.8829879760742	1428.576782226562	1030.539916992188	-253.1057586669922	1636.349731445312	669.9522705078125	-420.3614196777344	1594.208374023438	269.2231140136719	-382.6981811523438	1559.441162109375	643.7777099609375	-419.2074584960938	1668.255859375	575.1061401367188	-391.4299926757812	974.1624755859376	304.0995178222656	-122.5541229248047	1593.3486328125	367.0735778808594	-399.6551208496094	1587.0322265625	550.4964599609375	-392.0576171875	1525.542114257812	623.2944946289062	-101.9334869384766	1831.760375976562	120.9449005126953	-320.5917358398438	1450.150268554688	639.6692504882812	-99.64034271240234	1505.34130859375	525.11572265625	-107.6784057617188	1426.865600585938	544.1046752929688	-115.160758972168	1637.37841796875	505.2105102539062	-386.9975891113281	1439.29248046875	499.7024536132812	-105.3631896972656	1671.399536132812	369.6589660644531	-389.3323364257812	1673.71484375	270.756591796875	-375.7009887695312	1346.08642578125	429.8659973144531	-101.5249252319336	1778.636474609375	78.89815521240234	-371.0936889648438	1326.919799804688	508.3611145019531	-104.3342132568359	1610.407470703125	53.38724136352539	-255.7186889648438	1247.218139648438	404.6894226074219	-110.9110794067383	1231.634887695312	482.8181762695312	-117.9103775024414	1649.231323242188	90.17552185058594	-345.3079528808594	1058.40576171875	404.1032409667969	-147.9636535644531	988.292724609375	221.0394287109375	-163.7597503662109	1072.851684570312	450.9079895019531	-212.6909942626953	1049.390869140625	435.6051940917969	-248.0425872802734	1038.936157226562	462.7505493164062	-198.5602569580078	1601.02392578125	44.51712417602539	-308.4557495117188
247	1.23	1510.889038085938	1460.111083984375	-424.3798217773438	1585.06201171875	1438.586059570312	-131.6461944580078	1518.626342773438	994.5430297851562	-415.0750122070312	1558.716796875	979.5809326171876	-117.6094436645508	1581.664672851562	949.8914794921876	-403.1632385253906	1601.587646484375	79.59664916992188	-278.9535827636719	1614.55615234375	932.5853881835938	-146.4022064208984	1464.371337890625	864.1030883789062	-417.6103515625	1464.736694335938	881.2459106445312	-100.7201156616211	1444.17724609375	1024.968994140625	-253.6296234130859	1652.22412109375	666.9127197265625	-416.5675964355469	1606.716186523438	264.6119995117188	-381.8251037597656	1575.660766601562	639.547119140625	-419.559326171875	1684.1669921875	571.0492553710938	-390.0591430664062	994.83642578125	308.0303649902344	-122.8111038208008	1607.002319335938	362.5744323730469	-398.6101989746094	1603.215698242188	546.4957885742188	-391.9041442871094	1545.986450195312	617.6314697265625	-100.6786422729492	1840.643432617188	106.3123779296875	-316.4244995117188	1470.499633789062	632.5869140625	-98.68540954589844	1527.244995117188	518.7991943359375	-107.144645690918	1448.58935546875	536.579833984375	-114.8381195068359	1652.376342773438	499.9596252441406	-385.9981689453125	1461.70458984375	493.1529846191406	-104.3691787719727	1684.708374023438	363.8913269042969	-387.6125183105469	1685.529418945312	265.2221984863281	-373.885009765625	1368.193481445312	424.7555847167969	-101.2466659545898	1785.242309570312	68.09374237060547	-367.4292297363281	1350.94091796875	503.9812622070312	-103.8649063110352	1615.059204101562	50.71853256225586	-255.8820953369141	1268.851928710938	402.4924011230469	-110.9036178588867	1255.013061523438	480.459228515625	-117.8663864135742	1656.264892578125	87.7834701538086	-343.8286437988281	1079.944213867188	406.8348083496094	-148.3343658447266	1008.085571289062	224.8503875732422	-163.6129455566406	1095.688720703125	453.3148193359375	-213.6194458007812	1072.3662109375	438.2315673828125	-249.04345703125	1061.951293945312	465.7639465332031	-199.1201477050781	1605.025390625	45.63676071166992	-309.7883605957031
248	1.235	1527.53515625	1453.283447265625	-425.8036804199219	1600.793212890625	1432.8896484375	-132.4351348876953	1533.091918945312	989.1957397460938	-415.3006591796875	1573.948974609375	973.2240600585938	-117.7005615234375	1596.908447265625	945.0877685546876	-403.6659851074219	1604.886596679688	78.81544494628906	-281.4779968261719	1630.245971679688	927.2078857421876	-146.244140625	1480.11572265625	858.8073120117188	-417.1705017089844	1481.616821289062	874.419189453125	-100.2825088500977	1459.479614257812	1019.571594238281	-253.298583984375	1669.283813476562	661.992919921875	-411.0435180664062	1618.665405273438	259.7482299804688	-380.90380859375	1591.725341796875	634.3385620117188	-419.9006042480469	1699.512939453125	566.3328857421875	-389.1615295410156	1016.369079589844	311.9139099121094	-122.0792999267578	1620.642578125	357.5458984375	-397.9493713378906	1618.695922851562	541.348876953125	-392.2894897460938	1566.343505859375	611.7593994140625	-101.0509185791016	1848.276489257812	93.05227661132812	-311.8291625976562	1489.883422851562	625.6397094726562	-99.59488677978516	1549.177856445312	512.4930419921875	-106.2667770385742	1470.485961914062	529.0103149414062	-113.8085098266602	1667.282958984375	494.9458312988281	-385.3094787597656	1484.996337890625	485.8006286621094	-104.1215209960938	1698.333862304688	358.3068542480469	-385.4836120605469	1697.672607421875	259.4441833496094	-371.8626708984375	1390.574584960938	419.9969482421875	-101.0302658081055	1791.904907226562	60.58328628540039	-365.5055541992188	1374.904541015625	499.7314147949219	-103.6304168701172	1616.262329101562	50.38927841186523	-256.9009094238281	1291.241943359375	399.8704833984375	-110.9414978027344	1279.007080078125	478.2472229003906	-117.361572265625	1662.592529296875	83.9841537475586	-342.8568420410156	1102.416137695312	409.3224487304688	-149.2891998291016	1028.819580078125	227.9806671142578	-163.243896484375	1118.85302734375	455.5221252441406	-214.4188079833984	1095.339477539062	440.0006713867188	-248.9007263183594	1085.3232421875	468.2266845703125	-200.0949096679688	1608.570190429688	44.07989120483398	-310.0401306152344
